<svg width="290" height="308" viewBox="0 0 290 308" fill="none" xmlns="http://www.w3.org/2000/svg">
<rect x="8.5" y="8.5" width="274" height="292" stroke="#FFA424" stroke-width="15"/>
<line x1="6.49074" y1="296.059" x2="276.174" y2="5.90815" stroke="#FFA424" stroke-width="15"/>
<path d="M45.9159 117.263V47.2632H77.9159C84.3159 47.2632 89.8159 48.2965 94.4159 50.3632C99.0826 52.4298 102.683 55.4298 105.216 59.3632C107.749 63.2298 109.016 67.8298 109.016 73.1632C109.016 78.4298 107.749 82.9965 105.216 86.8632C102.683 90.6632 99.0826 93.5965 94.4159 95.6632C89.8159 97.6632 84.3159 98.6632 77.9159 98.6632H56.9159L65.7159 90.3632V117.263H45.9159ZM89.2159 117.263L71.8159 91.7632H92.9159L110.416 117.263H89.2159ZM65.7159 92.4632L56.9159 83.3632H76.7159C80.8492 83.3632 83.9159 82.4632 85.9159 80.6632C87.9826 78.8632 89.0159 76.3632 89.0159 73.1632C89.0159 69.8965 87.9826 67.3632 85.9159 65.5632C83.9159 63.7632 80.8492 62.8632 76.7159 62.8632H56.9159L65.7159 53.7632V92.4632ZM119.939 117.263V47.2632H139.739V117.263H119.939Z" fill="#FFA424"/>
<path d="M170.2 247.826L169.1 225.626L199.2 193.326H221L191 225.826L180 237.326L170.2 247.826ZM152.5 263.326V193.326H172.1V263.326H152.5ZM199.5 263.326L176.7 234.426L189.6 220.626L222.5 263.326H199.5ZM227.695 263.326V193.326H247.495V263.326H227.695Z" fill="#FFA424"/>
</svg>
