<svg width="290" height="308" viewBox="0 0 290 308" fill="none" xmlns="http://www.w3.org/2000/svg">
<rect x="8.25745" y="8.08594" width="274" height="292" stroke="white" stroke-width="15"/>
<line x1="6.24819" y1="295.644" x2="275.932" y2="5.49408" stroke="white" stroke-width="15"/>
<path d="M45.6733 116.849V46.8491H77.6733C84.0733 46.8491 89.5733 47.8825 94.1733 49.9491C98.84 52.0158 102.44 55.0158 104.973 58.9491C107.507 62.8158 108.773 67.4158 108.773 72.7491C108.773 78.0158 107.507 82.5825 104.973 86.4491C102.44 90.2491 98.84 93.1825 94.1733 95.2491C89.5733 97.2491 84.0733 98.2491 77.6733 98.2491H56.6733L65.4733 89.9491V116.849H45.6733ZM88.9733 116.849L71.5733 91.3491H92.6733L110.173 116.849H88.9733ZM65.4733 92.0491L56.6733 82.9491H76.4733C80.6067 82.9491 83.6733 82.0491 85.6733 80.2491C87.74 78.4491 88.7733 75.9491 88.7733 72.7491C88.7733 69.4825 87.74 66.9491 85.6733 65.1491C83.6733 63.3491 80.6067 62.4491 76.4733 62.4491H56.6733L65.4733 53.3491V92.0491ZM119.697 116.849V46.8491H139.497V116.849H119.697Z" fill="white"/>
<path d="M169.957 245.822L168.857 223.622L198.957 191.322H220.757L190.757 223.822L179.757 235.322L169.957 245.822ZM152.257 261.322V191.322H171.857V261.322H152.257ZM199.257 261.322L176.457 232.422L189.357 218.622L222.257 261.322H199.257ZM227.453 261.322V191.322H247.253V261.322H227.453Z" fill="white"/>
</svg>
